<?xml version="1.0" standalone="no"?>
<!DOCTYPE svg PUBLIC "-//W3C//DTD SVG 20010904//EN"
 "http://www.w3.org/TR/2001/REC-SVG-20010904/DTD/svg10.dtd">
<svg version="1.0" xmlns="http://www.w3.org/2000/svg"
 width="300.000000pt" height="98.000000pt" viewBox="0 0 300.000000 98.000000"
 preserveAspectRatio="xMidYMid meet">
<metadata>
Created by potrace 1.10, written by Peter Selinger 2001-2011
</metadata>
<g transform="translate(0.000000,98.000000) scale(0.100000,-0.100000)"
fill="#ffffff" stroke="none">
<path d="M598 964 c-24 -7 -23 -10 11 -53 l29 -36 -29 -35 c-16 -19 -29 -38
-29 -43 0 -5 30 -7 66 -5 50 3 70 9 80 23 18 24 10 32 -11 11 -11 -11 -34 -16
-68 -16 l-51 0 28 29 c29 31 30 57 1 81 -8 7 -15 16 -15 21 0 12 97 11 105 -1
3 -5 11 -10 18 -10 7 0 5 6 -4 15 -16 16 -100 28 -131 19z"/>
<path d="M812 957 c-8 -10 -6 -13 9 -13 20 0 25 11 10 20 -5 3 -13 0 -19 -7z"/>
<path d="M1410 960 c0 -5 22 -10 48 -10 26 0 54 -6 61 -12 11 -11 13 -10 9 2
-7 24 -118 43 -118 20z"/>
<path d="M1112 943 c-5 -10 -6 -27 -2 -38 6 -16 8 -14 12 15 7 41 3 49 -10 23z"/>
<path d="M1399 921 c37 -47 38 -51 6 -81 -39 -36 -32 -50 23 -49 66 1 96 12
101 34 3 17 2 18 -14 2 -11 -12 -33 -17 -67 -17 l-51 0 20 23 c11 12 23 28 27
35 9 15 -43 91 -62 92 -8 0 -1 -15 17 -39z"/>
<path d="M1846 944 c-9 -24 -7 -56 3 -49 5 3 9 19 9 35 -1 34 -3 37 -12 14z"/>
<path d="M1210 930 c0 -11 -4 -20 -10 -20 -5 0 -9 5 -7 11 1 6 -6 13 -15 14
-13 2 -18 -3 -18 -18 0 -18 2 -19 10 -7 8 13 10 13 10 -1 0 -10 8 -15 21 -14
16 1 23 9 25 28 1 15 -2 27 -7 27 -5 0 -9 -9 -9 -20z"/>
<path d="M1921 928 c-6 -18 -9 -19 -14 -5 -11 28 -37 20 -36 -10 0 -27 1 -27
9 -5 11 27 20 29 13 4 -3 -14 1 -18 18 -17 16 1 23 9 25 28 3 33 -4 35 -15 5z"/>
<path d="M62 927 c-5 -6 -12 -29 -16 -49 -4 -21 -11 -38 -17 -38 -6 0 -7 -5
-4 -10 12 -19 32 8 39 49 3 22 11 41 18 43 8 3 9 6 1 11 -6 4 -15 1 -21 -6z"/>
<path d="M100 914 c-13 -34 -13 -57 3 -77 10 -15 12 -8 12 43 0 33 -1 60 -3
60 -1 0 -7 -12 -12 -26z"/>
<path d="M178 929 c15 -17 16 -81 0 -97 -9 -9 -9 -12 0 -12 36 0 38 107 2 118
-12 4 -13 2 -2 -9z"/>
<path d="M290 921 c-14 -28 -12 -64 5 -87 17 -23 19 -15 5 21 -8 20 -7 35 4
56 16 32 3 41 -14 10z"/>
<path d="M368 929 c15 -17 16 -81 0 -97 -9 -9 -9 -12 0 -12 36 0 38 107 2 118
-12 4 -13 2 -2 -9z"/>
<path d="M870 921 c-14 -26 -13 -63 3 -84 10 -15 12 -8 12 43 0 33 -1 60 -2
60 -1 0 -7 -9 -13 -19z"/>
<path d="M1015 880 c0 -51 2 -58 13 -43 6 9 12 29 12 43 0 14 -6 34 -12 43
-11 15 -13 8 -13 -43z"/>
<path d="M1139 938 c-6 -21 -5 -38 2 -38 5 0 9 9 9 20 0 16 -7 28 -11 18z"/>
<path d="M1577 933 c-12 -12 -7 -19 12 -19 15 0 17 3 9 13 -12 15 -13 15 -21
6z"/>
<path d="M1636 924 c-15 -39 1 -120 20 -101 4 3 1 13 -6 22 -12 14 -10 41 5
78 4 9 3 17 -3 17 -5 0 -13 -7 -16 -16z"/>
<path d="M1740 932 c0 -6 5 -14 10 -17 13 -8 13 -51 0 -76 -6 -11 -7 -19 -1
-19 24 0 29 91 6 110 -9 8 -15 9 -15 2z"/>
<path d="M145 920 c-14 -23 -14 -70 0 -70 8 0 17 5 21 12 5 7 3 8 -5 4 -9 -6
-11 1 -6 28 7 35 3 46 -10 26z"/>
<path d="M805 919 c-4 -5 -9 -25 -12 -42 -3 -18 -10 -35 -16 -39 -6 -4 -8 -10
-4 -14 12 -12 26 8 41 59 13 42 7 63 -9 36z"/>
<path d="M330 901 c0 -11 -3 -26 -6 -35 -7 -19 21 -23 32 -4 5 7 3 8 -6 3 -9
-6 -11 0 -5 24 4 20 3 31 -4 31 -6 0 -11 -9 -11 -19z"/>
<path d="M236 895 c-20 -20 -20 -34 -1 -41 8 -4 12 -10 9 -15 -3 -5 -10 -7
-15 -4 -5 4 -9 1 -9 -5 0 -25 35 -3 44 28 12 41 -3 61 -28 37z m24 -14 c0 -6
-4 -13 -10 -16 -5 -3 -10 1 -10 9 0 9 5 16 10 16 6 0 10 -4 10 -9z"/>
<path d="M909 910 c-4 -26 -3 -60 2 -60 12 0 19 44 9 54 -6 6 -10 8 -11 6z"/>
<path d="M942 876 c0 -29 1 -30 11 -8 13 27 27 29 20 2 -4 -14 0 -20 11 -20
17 0 18 5 7 34 -4 11 -17 20 -28 21 -16 1 -20 -5 -21 -29z"/>
<path d="M1062 898 c-26 -26 -7 -62 26 -51 20 8 13 22 -8 16 -15 -4 -19 -2
-14 10 3 9 12 13 21 10 10 -4 14 -2 11 7 -6 19 -22 22 -36 8z"/>
<path d="M1689 903 c-17 -4 -24 -53 -8 -53 5 0 9 9 9 19 0 11 5 23 11 27 9 5
10 -1 5 -20 -5 -19 -3 -26 8 -26 8 0 18 5 22 12 5 7 3 8 -6 3 -9 -5 -10 -2 -6
13 7 21 -7 31 -35 25z"/>
<path d="M1796 894 c-19 -19 -20 -28 -3 -42 17 -14 33 -2 34 25 2 30 -12 37
-31 17z m21 -19 c0 -8 -4 -15 -9 -15 -4 0 -8 7 -8 15 0 8 4 15 8 15 5 0 9 -7
9 -15z"/>
<path d="M444 880 c0 -16 7 -20 38 -20 31 0 38 4 38 20 0 16 -7 20 -38 20 -31
0 -38 -4 -38 -20z m61 0 c4 -6 -5 -10 -20 -10 -15 0 -24 4 -20 10 3 6 12 10
20 10 8 0 17 -4 20 -10z"/>
<path d="M1566 883 c-5 -11 -1 -22 10 -30 16 -12 12 -17 -8 -14 -5 0 -8 -3 -8
-9 0 -13 27 -13 35 0 14 22 23 70 14 70 -5 0 -9 -9 -9 -20 0 -11 -5 -20 -11
-20 -6 0 -9 9 -6 20 6 24 -8 27 -17 3z"/>
<path d="M1300 880 c0 -5 5 -10 11 -10 5 0 7 5 4 10 -3 6 -8 10 -11 10 -2 0
-4 -4 -4 -10z"/>
<path d="M690 770 c0 -5 7 -6 17 -3 10 4 14 2 9 -5 -3 -6 -2 -13 3 -16 5 -3
12 1 15 10 9 23 8 24 -19 24 -14 0 -25 -4 -25 -10z"/>
<path d="M1480 770 c0 -5 8 -7 18 -3 16 6 16 5 0 -14 -24 -26 -23 -33 7 -33
14 0 25 4 25 10 0 5 -7 7 -16 3 -15 -5 -15 -3 1 20 17 27 17 27 -9 27 -14 0
-26 -4 -26 -10z"/>
<path d="M647 763 c-13 -12 -7 -32 13 -43 17 -9 20 -8 20 12 0 18 -2 20 -10 8
-5 -8 -13 -11 -17 -6 -4 4 1 14 11 22 15 11 16 14 5 14 -9 0 -19 -3 -22 -7z"/>
<path d="M1437 763 c-18 -17 0 -53 27 -53 1 0 2 10 3 23 0 12 -1 16 -4 10 -6
-18 -23 -16 -23 1 0 8 8 17 18 19 14 4 14 5 1 6 -9 0 -19 -2 -22 -6z"/>
<path d="M564 740 c0 -11 4 -20 8 -20 4 0 8 6 8 14 0 8 8 14 19 13 11 0 17 -6
14 -14 -3 -7 0 -13 6 -13 6 0 11 9 11 20 0 16 -7 20 -33 20 -26 0 -33 -4 -33
-20z"/>
<path d="M1373 741 c1 -24 17 -29 17 -6 0 8 4 15 10 15 5 0 7 -7 4 -15 -4 -8
-1 -15 6 -15 21 0 5 35 -17 38 -17 3 -21 -2 -20 -17z"/>
<path d="M697 736 c-5 -12 0 -16 23 -16 17 0 30 5 30 11 0 6 -6 9 -14 6 -7 -3
-18 -1 -23 4 -7 7 -12 5 -16 -5z"/>
<path d="M640 625 l31 -45 -31 -38 -30 -37 66 -3 c68 -3 94 7 94 37 -1 14 -2
14 -14 -1 -10 -13 -27 -18 -66 -18 l-53 0 20 23 c34 38 35 46 7 82 l-26 35 50
0 c32 0 54 -5 62 -15 15 -19 23 -14 14 9 -5 13 -21 16 -81 16 l-74 0 31 -45z"/>
<path d="M880 662 c0 -5 7 -9 15 -9 8 0 15 4 15 9 0 4 -7 8 -15 8 -8 0 -15 -4
-15 -8z"/>
<path d="M1440 660 c0 -5 -6 -8 -12 -6 -7 1 -10 1 -5 -1 4 -3 7 -13 7 -23 0
-25 10 -50 21 -50 5 0 4 11 -2 24 -8 17 -8 29 0 45 8 14 8 21 1 21 -5 0 -10
-4 -10 -10z"/>
<path d="M1655 625 c0 -24 3 -41 8 -38 4 2 7 19 7 38 0 19 -3 36 -7 38 -5 3
-8 -14 -8 -38z"/>
<path d="M1684 635 c-8 -31 2 -44 19 -25 9 10 9 11 -1 6 -10 -6 -11 -1 -6 18
3 14 4 26 0 26 -3 0 -8 -11 -12 -25z"/>
<path d="M940 619 c-15 -35 -5 -79 20 -87 12 -4 13 -2 3 9 -16 16 -17 63 -3
90 6 10 7 19 2 19 -5 0 -15 -14 -22 -31z"/>
<path d="M1087 625 c8 -35 8 -41 -1 -80 -7 -28 -7 -29 8 -11 20 25 21 76 1
102 -14 18 -15 17 -8 -11z"/>
<path d="M1200 631 c-15 -28 -12 -74 5 -97 14 -18 15 -17 8 11 -8 37 -8 44 1
78 8 32 1 35 -14 8z"/>
<path d="M1300 642 c0 -6 5 -14 11 -18 11 -7 8 -55 -6 -89 -8 -18 -7 -19 8 -6
22 17 23 93 2 111 -9 8 -15 9 -15 2z"/>
<path d="M1554 636 c-8 -8 -7 -15 0 -22 8 -8 15 -7 22 0 8 8 7 15 0 22 -8 8
-15 7 -22 0z"/>
<path d="M875 623 c-4 -10 -9 -29 -11 -42 -2 -13 -8 -27 -15 -31 -8 -6 -8 -9
1 -15 15 -9 30 12 30 43 0 12 5 22 11 22 5 0 7 5 4 10 -3 6 -1 10 4 10 6 0 11
5 11 10 0 17 -27 11 -35 -7z"/>
<path d="M1135 630 c-3 -5 3 -10 15 -10 12 0 18 5 15 10 -3 6 -10 10 -15 10
-5 0 -12 -4 -15 -10z"/>
<path d="M1400 622 c0 -13 -7 -18 -22 -18 -14 1 -24 -6 -26 -18 -6 -26 12 -40
35 -27 16 9 16 10 -7 11 -24 1 -24 2 8 17 30 15 46 53 22 53 -5 0 -10 -8 -10
-18z"/>
<path d="M1463 622 c-2 -23 34 -27 40 -4 4 15 5 15 6 0 1 -25 21 -23 21 2 0
25 -37 27 -43 3 -4 -17 -5 -17 -6 0 -1 23 -16 22 -18 -1z"/>
<path d="M1600 618 c0 -19 2 -20 10 -8 13 19 13 30 0 30 -5 0 -10 -10 -10 -22z"/>
<path d="M1627 626 c-4 -10 -5 -21 -2 -24 9 -9 17 6 13 25 -3 17 -4 17 -11 -1z"/>
<path d="M445 600 c-4 -6 10 -10 34 -10 23 0 41 5 41 10 0 6 -15 10 -34 10
-19 0 -38 -4 -41 -10z"/>
<path d="M974 595 c3 -9 6 -24 7 -33 0 -10 5 -5 11 11 12 35 31 36 22 1 -5
-19 -4 -25 5 -20 6 4 11 16 11 27 0 10 4 19 10 19 5 0 9 -8 7 -17 -1 -10 2
-19 8 -20 5 -2 9 7 9 20 1 19 -5 22 -48 25 -42 3 -48 1 -42 -13z"/>
<path d="M1137 603 c-4 -3 -7 -16 -6 -27 0 -19 1 -19 10 3 12 30 22 22 14 -12
-5 -17 -12 -24 -21 -20 -8 3 -14 0 -14 -6 0 -20 38 -12 44 9 3 11 9 29 12 40
4 15 1 20 -14 20 -10 0 -22 -3 -25 -7z"/>
<path d="M1234 585 c1 -31 11 -32 21 -2 7 21 7 21 14 -5 5 -21 9 -25 21 -18 8
5 10 10 3 10 -6 0 -9 9 -6 20 4 17 0 20 -25 20 -26 0 -30 -4 -28 -25z"/>
<path d="M463 573 c15 -2 37 -2 50 0 12 2 0 4 -28 4 -27 0 -38 -2 -22 -4z"/>
<path d="M764 478 c-5 -8 -2 -9 9 -5 10 3 17 3 17 -2 0 -12 -35 -41 -48 -41
-16 0 -15 37 1 43 7 4 8 6 1 6 -6 1 -17 -6 -24 -15 -22 -26 6 -44 58 -37 23 3
42 9 42 14 0 5 -7 6 -16 2 -15 -5 -15 -3 1 20 17 27 17 27 -8 27 -14 0 -29 -5
-33 -12z"/>
<path d="M567 450 c-6 -25 1 -26 19 -2 13 16 14 16 8 0 -4 -11 -1 -18 6 -18
17 0 7 34 -11 38 -10 2 -19 -6 -22 -18z"/>
<path d="M640 449 c0 -11 -4 -17 -10 -14 -5 3 -10 -2 -10 -12 1 -14 6 -12 26
12 15 17 24 22 20 13 -3 -10 -1 -18 4 -18 5 0 11 8 13 18 4 16 5 16 6 0 0 -10
5 -18 10 -18 5 0 7 8 4 19 -7 27 -63 27 -63 0z"/>
<path d="M806 355 c-11 -11 -16 -34 -16 -71 0 -31 -5 -65 -11 -76 -8 -14 -8
-23 0 -31 6 -6 11 -39 11 -72 0 -49 4 -66 20 -80 11 -10 20 -13 20 -7 0 6 -4
14 -10 17 -5 3 -10 32 -10 64 0 33 -6 65 -14 76 -11 16 -11 21 0 33 9 8 14 35
14 71 0 31 5 62 12 69 6 6 9 14 6 17 -3 3 -13 -1 -22 -10z"/>
<path d="M1823 352 c12 -13 17 -37 17 -78 0 -33 5 -65 12 -72 9 -9 9 -15 0
-24 -7 -7 -12 -39 -12 -72 0 -41 -5 -65 -17 -78 -9 -10 -11 -18 -5 -18 23 0
42 45 42 100 0 31 5 61 12 68 9 9 9 15 0 24 -7 7 -12 37 -12 68 0 55 -19 100
-42 100 -6 0 -4 -8 5 -18z"/>
<path d="M587 274 c-16 -5 -14 -10 12 -46 l30 -41 -30 -36 -29 -36 66 -3 c40
-2 71 2 80 9 24 20 15 29 -13 13 -16 -7 -48 -14 -72 -14 l-45 0 33 34 33 34
-26 35 c-14 18 -26 36 -26 39 0 10 105 -5 112 -16 10 -16 18 -3 8 13 -8 15
-99 24 -133 15z"/>
<path d="M860 271 c0 -3 14 -24 30 -45 l29 -39 -30 -38 -31 -39 75 0 c66 0 75
2 80 20 5 18 4 19 -16 5 -12 -8 -43 -15 -71 -15 l-50 0 33 34 33 34 -26 35
c-14 18 -26 36 -26 39 0 13 106 -6 117 -21 15 -19 17 -3 3 19 -7 11 -29 15
-80 16 -38 1 -70 -1 -70 -5z"/>
<path d="M1095 270 c-3 -5 1 -10 10 -10 9 0 13 5 10 10 -3 6 -8 10 -10 10 -2
0 -7 -4 -10 -10z"/>
<path d="M1974 240 c-4 -16 -11 -27 -16 -24 -13 8 -38 -16 -38 -37 0 -21 34
-27 46 -8 4 8 0 9 -15 4 -23 -7 -26 1 -11 25 7 10 10 11 10 2 0 -24 38 11 42
40 6 38 -11 36 -18 -2z"/>
<path d="M2057 253 c-10 -9 -9 -43 1 -43 4 0 9 11 10 25 2 26 0 29 -11 18z"/>
<path d="M1092 238 c-7 -7 -12 -25 -12 -40 0 -16 -7 -31 -15 -34 -19 -8 -19
-24 0 -24 8 0 19 17 26 43 6 23 16 45 21 48 6 4 7 9 1 12 -6 4 -15 1 -21 -5z"/>
<path d="M1149 223 c-12 -32 -1 -84 20 -91 10 -3 11 0 2 16 -15 27 -14 75 1
90 9 9 9 12 0 12 -7 0 -17 -12 -23 -27z"/>
<path d="M1513 220 c8 -22 8 -38 0 -60 -6 -16 -8 -30 -3 -30 11 0 20 26 20 60
0 34 -9 60 -20 60 -5 0 -3 -13 3 -30z"/>
<path d="M1565 240 c-3 -5 1 -10 10 -10 9 0 13 5 10 10 -3 6 -8 10 -10 10 -2
0 -7 -4 -10 -10z"/>
<path d="M1620 224 c-6 -14 -10 -29 -10 -34 0 -18 24 -60 34 -60 6 0 5 5 -2
12 -7 7 -12 28 -12 48 0 20 5 41 12 48 9 9 9 12 0 12 -7 0 -17 -12 -22 -26z"/>
<path d="M1766 233 c10 -24 10 -63 -1 -88 -8 -18 -7 -19 8 -6 25 20 21 111 -5
111 -6 0 -7 -7 -2 -17z"/>
<path d="M2000 228 c1 -22 1 -22 12 -3 11 19 11 19 19 0 7 -19 8 -18 8 3 1 16
-5 22 -19 22 -14 0 -20 -7 -20 -22z"/>
<path d="M2409 205 c-6 -25 -15 -45 -20 -45 -5 0 -9 -4 -9 -10 0 -5 6 -10 13
-10 14 0 40 67 31 82 -3 4 0 8 5 8 6 0 11 5 11 10 0 6 -4 10 -10 10 -5 0 -15
-20 -21 -45z"/>
<path d="M2732 211 c-12 -21 -28 -42 -35 -44 -6 -3 -2 -6 11 -6 13 -1 21 2 18
7 -2 4 2 18 10 32 l15 25 -4 -32 c-3 -26 0 -33 14 -33 18 0 18 -2 -4 83 -2 5
-13 -10 -25 -32z"/>
<path d="M2802 238 c-17 -17 -15 -70 3 -94 17 -23 19 -14 4 20 -8 18 -9 33 -1
55 12 34 11 36 -6 19z"/>
<path d="M2837 243 c-11 -11 -8 -25 4 -17 8 5 10 -4 7 -30 -3 -31 -1 -36 17
-36 18 0 20 5 17 36 -3 26 -1 35 7 30 6 -4 11 -1 11 8 0 16 -49 23 -63 9z m30
-60 c-3 -10 -5 -2 -5 17 0 19 2 27 5 18 2 -10 2 -26 0 -35z"/>
<path d="M2922 219 c8 -22 7 -37 -1 -55 -15 -34 -13 -43 4 -20 22 29 18 106
-6 106 -4 0 -3 -14 3 -31z"/>
<path d="M2602 218 c-25 -25 -6 -68 30 -68 26 0 22 18 -4 23 l-23 4 23 2 c12
0 22 6 22 12 0 7 -10 9 -25 7 -14 -3 -25 -1 -25 3 0 5 11 9 25 9 14 0 25 5 25
10 0 14 -33 13 -48 -2z"/>
<path d="M1188 213 c-3 -4 -2 -19 2 -33 l6 -25 8 24 c8 22 -7 52 -16 34z"/>
<path d="M1223 189 c-2 -20 2 -29 13 -29 11 0 14 6 9 23 -11 35 -20 38 -22 6z"/>
<path d="M1403 189 c0 -16 4 -29 9 -29 4 0 8 9 8 19 0 11 5 23 11 27 8 5 10
-1 7 -20 -3 -14 -1 -26 3 -26 8 0 10 6 13 42 1 7 -11 13 -25 15 -22 1 -26 -2
-26 -28z"/>
<path d="M1468 190 c4 -29 16 -39 25 -22 6 10 -11 52 -21 52 -5 0 -7 -13 -4
-30z"/>
<path d="M1562 208 c-17 -17 -15 -38 6 -45 14 -6 13 -8 -8 -14 l-25 -7 26 -1
c22 -1 28 4 33 30 9 45 -6 63 -32 37z m22 -22 c-6 -16 -24 -23 -24 -8 0 10 22
33 27 28 2 -2 1 -11 -3 -20z"/>
<path d="M1654 208 c-2 -3 0 -17 5 -30 6 -12 10 -18 10 -12 1 5 8 19 17 30 15
18 15 18 9 -9 -4 -19 -2 -26 5 -22 5 3 10 12 10 20 0 8 5 17 11 21 9 5 10 -1
5 -20 -5 -19 -3 -26 8 -26 10 0 14 9 12 28 -3 25 -7 27 -46 27 -23 0 -44 -3
-46 -7z"/>
<path d="M2510 205 c-11 -14 -11 -20 -1 -37 11 -18 11 -20 -3 -15 -9 4 -16 2
-16 -3 0 -15 40 -12 45 3 18 49 1 83 -25 52z m16 -32 c-11 -11 -17 4 -9 23 7
18 8 18 11 1 2 -10 1 -21 -2 -24z"/>
<path d="M2960 210 c0 -5 5 -10 11 -10 5 0 7 5 4 10 -3 6 -8 10 -11 10 -2 0
-4 -4 -4 -10z"/>
<path d="M463 203 c15 -2 37 -2 50 0 12 2 0 4 -28 4 -27 0 -38 -2 -22 -4z"/>
<path d="M1290 190 c0 -5 16 -10 35 -10 19 0 35 5 35 10 0 6 -16 10 -35 10
-19 0 -35 -4 -35 -10z"/>
<path d="M445 180 c-4 -6 10 -10 34 -10 23 0 41 5 41 10 0 6 -15 10 -34 10
-19 0 -38 -4 -41 -10z"/>
<path d="M2100 160 c0 -19 3 -21 12 -12 9 9 9 15 0 24 -9 9 -12 7 -12 -12z"/>
<path d="M2450 160 c0 -11 5 -20 10 -20 6 0 10 9 10 20 0 11 -4 20 -10 20 -5
0 -10 -9 -10 -20z"/>
<path d="M2960 160 c0 -19 3 -21 12 -12 9 9 9 15 0 24 -9 9 -12 7 -12 -12z"/>
<path d="M670 80 c0 -5 7 -7 16 -3 15 5 15 3 -1 -20 l-17 -27 31 0 c17 0 31 5
31 11 0 6 -9 8 -22 3 l-23 -6 24 26 24 26 -31 0 c-18 0 -32 -4 -32 -10z"/>
<path d="M980 79 c0 -5 5 -7 10 -4 6 3 10 2 10 -4 0 -5 -4 -13 -10 -16 -18
-11 -10 -25 15 -25 14 0 25 4 25 10 0 5 -8 6 -17 3 -17 -7 -17 -6 0 20 17 27
17 27 -8 27 -14 0 -25 -5 -25 -11z"/>
<path d="M624 65 c-8 -19 3 -35 24 -35 15 0 15 2 2 10 -13 9 -13 10 0 10 12 0
13 2 1 9 -11 7 -11 9 0 14 10 4 8 6 -4 6 -10 1 -20 -6 -23 -14z"/>
<path d="M928 68 c-8 -22 3 -38 25 -37 21 0 21 1 2 8 -20 8 -20 8 0 13 20 6
20 6 0 8 -20 1 -20 1 0 10 19 8 19 9 -1 9 -12 1 -24 -5 -26 -11z"/>
<path d="M570 48 c1 -22 1 -22 12 -3 11 19 11 19 19 0 7 -19 8 -18 8 3 1 16
-5 22 -19 22 -14 0 -20 -7 -20 -22z"/>
<path d="M850 51 c0 -22 27 -22 41 0 7 11 9 11 9 -4 0 -10 4 -16 10 -12 13 8
1 35 -15 35 -8 0 -16 -8 -18 -17 -4 -17 -5 -17 -6 0 -1 23 -21 22 -21 -2z"/>
</g>
</svg>
