<?xml version="1.0" standalone="no"?>
<!DOCTYPE svg PUBLIC "-//W3C//DTD SVG 20010904//EN"
 "http://www.w3.org/TR/2001/REC-SVG-20010904/DTD/svg10.dtd">
<svg version="1.0" xmlns="http://www.w3.org/2000/svg"
 width="300.000000pt" height="222.000000pt" viewBox="0 0 300.000000 222.000000"
 preserveAspectRatio="xMidYMid meet">
<metadata>
Created by potrace 1.10, written by Peter Selinger 2001-2011
</metadata>
<g transform="translate(0.000000,222.000000) scale(0.100000,-0.100000)"
fill="#fff5ee" stroke="none">
<path d="M0 1110 l0 -1110 1500 0 1500 0 0 1110 0 1110 -1500 0 -1500 0 0
-1110z m2990 0 l0 -1100 -1490 0 -1490 0 0 1100 0 1100 1490 0 1490 0 0 -1100z"/>
<path d="M44 2165 c-8 -19 3 -35 25 -35 14 0 17 6 13 25 -5 27 -29 34 -38 10z
m23 -17 c-3 -8 -6 -5 -6 6 -1 11 2 17 5 13 3 -3 4 -12 1 -19z"/>
<path d="M100 2170 c0 -5 7 -10 15 -10 8 0 15 5 15 10 0 6 -7 10 -15 10 -8 0
-15 -4 -15 -10z"/>
<path d="M150 1135 l0 -1025 101 0 c92 0 107 3 165 30 128 61 190 180 304 583
115 404 148 495 189 531 21 19 21 19 42 0 48 -43 89 -154 179 -484 64 -235
148 -469 171 -478 16 -6 -74 -74 -136 -103 -33 -16 -84 -33 -113 -39 -30 -5
-59 -13 -65 -17 -7 -5 -142 -11 -302 -14 l-290 -5 320 1 c301 0 324 2 382 22
79 28 109 44 167 88 l47 36 44 -49 c24 -26 67 -60 97 -74 54 -27 55 -27 328
-29 l275 -3 40 26 c63 42 75 54 75 71 0 9 5 19 10 22 6 3 10 -3 10 -14 0 -11
-5 -23 -10 -26 -8 -5 -8 -11 0 -20 20 -24 0 -44 -48 -48 -42 -3 -40 -4 15 -5
52 -2 61 1 57 13 -8 20 5 19 28 -2 15 -14 43 -16 189 -15 95 1 174 4 177 7 3
3 -20 5 -51 5 -44 0 -56 3 -60 18 -4 16 -5 16 -6 -1 -1 -17 -9 -18 -107 -12
-65 4 -118 12 -140 22 -33 16 -34 19 -34 72 1 31 9 80 19 109 19 56 31 75 31
50 0 -23 113 -141 168 -177 100 -64 210 -92 355 -89 62 1 88 3 60 5 -29 2 -53
8 -53 12 0 4 -19 14 -42 22 -65 21 -127 89 -180 199 -26 52 -52 118 -59 145
-6 28 -15 55 -19 60 -4 6 -24 71 -45 145 -20 74 -49 173 -63 220 l-26 84 23
161 c13 88 27 187 31 220 26 185 68 355 87 355 23 0 69 -210 108 -490 3 -19
19 -136 35 -260 74 -537 128 -748 212 -828 37 -35 123 -68 133 -51 4 5 0 11
-7 13 -7 3 -30 10 -50 16 -119 36 -174 211 -264 840 -5 33 -14 101 -34 255
-16 123 -21 158 -46 290 -27 143 -49 218 -67 234 -9 7 -13 63 -15 195 l-2 186
190 0 190 0 0 -280 0 -280 -146 0 c-94 0 -143 -4 -139 -10 4 -6 63 -10 146
-10 l139 0 3 -692 c2 -596 2 -555 5 300 l2 992 -1365 0 -1365 0 0 -1025z
m2035 578 c2 -397 1 -432 -15 -436 -9 -2 -29 -25 -43 -51 -33 -60 -93 -230
-102 -290 -4 -25 -10 -46 -14 -46 -4 0 -19 91 -34 203 -73 525 -107 677 -154
677 -30 0 -63 -106 -93 -300 -11 -65 -16 -99 -64 -445 -42 -295 -34 -270 -122
-406 -97 -153 -185 -278 -211 -302 -20 -17 -21 -16 -42 35 -49 115 -82 215
-131 390 -106 377 -141 474 -190 526 -25 26 -38 27 -68 6 -40 -28 -83 -133
-151 -369 -11 -38 -38 -135 -61 -214 -101 -354 -185 -505 -299 -540 -23 -6
-41 -16 -41 -21 0 -6 -41 -10 -95 -10 l-95 0 0 140 0 141 206 -1 c113 -1 208
1 212 4 3 3 -2 6 -11 6 -19 0 -19 8 -17 177 1 60 -3 93 -9 93 -7 0 -11 -47
-11 -135 l0 -135 -185 0 -185 0 1 575 0 575 784 0 c517 0 785 3 785 10 0 6
-75 10 -205 10 l-205 0 1 271 c0 149 -2 273 -5 276 -3 4 -6 -118 -6 -270 l0
-277 -185 0 -185 0 -2 278 c-1 152 -4 217 -5 145 l-4 -133 -192 0 -192 0 3
130 c2 86 0 130 -7 130 -7 0 -11 -48 -11 -140 l0 -140 200 0 200 0 0 -135 0
-135 -385 0 -384 0 0 280 0 280 964 0 965 0 0 -280 0 -280 -85 0 c-50 0 -85
-4 -85 -10 0 -6 35 -10 85 -10 l85 0 0 -140 0 -140 -48 4 c-26 3 -54 1 -62 -4
-10 -7 4 -10 47 -10 l62 0 4 -37 c2 -21 4 44 5 145 l2 182 35 0 c19 0 35 5 35
10 0 6 -16 10 -35 10 l-34 0 0 279 0 280 32 4 c17 2 36 3 41 2 5 0 10 -189 11
-432z m295 244 c0 -139 -3 -187 -14 -202 -22 -32 -45 -109 -62 -208 -33 -196
-64 -412 -64 -444 0 -50 -13 -40 -32 25 -20 67 -71 152 -92 152 -13 0 -15 55
-15 427 0 234 1 429 3 432 2 3 65 5 140 3 l136 -3 0 -182z m-631 -249 c27 -85
60 -276 110 -643 41 -295 42 -304 32 -279 -11 26 -87 92 -121 106 -14 5 -45 6
-69 3 -37 -6 -54 -17 -102 -65 -47 -48 -56 -54 -49 -32 5 15 23 126 40 247 65
468 78 543 108 643 18 60 36 67 51 20z m336 -828 c0 -209 -2 -380 -5 -380 -3
0 -13 16 -22 34 -9 19 -42 74 -74 122 -77 118 -79 140 -37 290 18 66 37 128
42 139 5 11 19 45 31 75 24 58 48 100 59 100 3 0 6 -171 6 -380z m59 341 c10
-18 33 -72 51 -119 l33 -87 -39 -235 c-21 -129 -41 -248 -44 -265 -16 -79 -15
-77 -30 -65 -12 10 -14 77 -15 412 0 422 2 431 44 359z m135 -401 c10 -36 33
-114 51 -175 18 -60 38 -130 44 -155 5 -25 16 -51 23 -58 7 -7 13 -19 13 -25
0 -26 69 -154 106 -196 21 -24 61 -54 88 -67 65 -30 40 -30 -84 0 -142 36
-191 64 -293 169 -71 72 -87 94 -82 111 18 58 27 106 55 270 16 99 30 194 30
211 0 45 14 53 23 13 5 -18 17 -62 26 -98z m-506 46 c18 -7 49 -31 69 -52 l37
-39 -34 -116 c-74 -252 -130 -375 -204 -449 -30 -30 -64 -53 -90 -61 -22 -7
-41 -16 -41 -21 0 -4 -20 -8 -45 -8 -25 0 -45 4 -45 10 0 5 -16 12 -35 16 -36
6 -126 78 -146 116 -8 16 -4 26 25 58 19 22 48 58 63 81 15 23 49 74 75 113
26 39 59 92 73 118 26 49 52 75 41 42 -3 -11 -17 -77 -31 -147 -31 -155 -64
-254 -104 -319 -30 -48 -28 -63 5 -31 45 46 99 218 140 453 9 52 25 109 35
125 36 61 119 125 162 125 10 0 32 -6 50 -14z m151 -228 c23 -146 68 -322 95
-378 28 -58 27 -64 -14 -96 -30 -22 -49 -27 -137 -35 -57 -4 -155 -8 -218 -8
-96 1 -110 3 -82 12 56 18 126 89 171 176 37 72 89 214 137 379 10 34 20 62
23 62 4 0 14 -51 25 -112z m72 -40 c31 -51 64 -101 72 -110 22 -27 27 -176 7
-224 -18 -45 -25 -39 -52 46 -33 103 -42 139 -63 245 -11 55 -23 108 -26 118
-11 35 6 15 62 -75z m124 -195 c0 -16 -5 -35 -10 -43 -7 -11 -10 -4 -10 28 0
23 5 42 10 42 6 0 10 -12 10 -27z"/>
<path d="M1705 2120 c-9 -15 -4 -270 6 -270 5 0 9 63 9 140 0 77 -2 140 -4
140 -3 0 -8 -4 -11 -10z"/>
<path d="M180 1860 c0 -6 63 -10 170 -10 107 0 170 4 170 10 0 6 -63 10 -170
10 -107 0 -170 -4 -170 -10z"/>
<path d="M950 1860 c0 -6 65 -10 175 -10 110 0 175 4 175 10 0 6 -65 10 -175
10 -110 0 -175 -4 -175 -10z"/>
<path d="M1340 1860 c0 -6 65 -10 176 -10 114 0 173 3 169 10 -4 6 -73 10
-176 10 -106 0 -169 -4 -169 -10z"/>
<path d="M1730 1860 c0 -6 63 -10 169 -10 103 0 172 4 176 10 4 7 -55 10 -169
10 -111 0 -176 -4 -176 -10z"/>
<path d="M2120 1860 c0 -13 11 -13 30 0 12 8 11 10 -7 10 -13 0 -23 -4 -23
-10z"/>
<path d="M530 1720 c0 -73 4 -120 10 -120 6 0 10 47 10 120 0 73 -4 120 -10
120 -6 0 -10 -47 -10 -120z"/>
<path d="M1700 1720 c0 -73 4 -120 10 -120 6 0 10 47 10 120 0 73 -4 120 -10
120 -6 0 -10 -47 -10 -120z"/>
<path d="M530 1410 l0 -140 169 0 c107 0 172 4 176 10 5 8 -47 10 -160 10
l-167 -2 1 131 c1 86 -2 131 -9 131 -6 0 -10 -49 -10 -140z"/>
<path d="M928 1451 c-2 -54 0 -112 3 -127 4 -16 7 28 8 99 0 70 -1 127 -3 127
-3 0 -6 -44 -8 -99z"/>
<path d="M1312 1275 l-2 -280 -84 3 c-48 2 -93 -1 -103 -7 -13 -8 8 -10 85
-11 l102 0 0 -285 c0 -221 -3 -285 -12 -285 -10 0 -10 -2 -2 -8 7 -4 14 -18
17 -32 l4 -25 2 27 c1 23 6 27 39 31 l37 4 -37 1 -36 2 -1 140 -2 140 127 0
c70 0 125 3 122 6 -3 3 -59 6 -124 7 l-119 2 -3 138 -3 137 163 1 c117 0 156
3 139 10 -14 5 -86 9 -160 8 l-136 -2 -3 136 -3 137 183 0 c125 0 178 3 168
10 -9 6 -86 10 -180 9 l-165 -1 -5 134 c-5 101 -6 66 -8 -147z"/>
<path d="M1700 1521 c0 -25 6 -27 13 -6 4 8 2 17 -3 20 -6 4 -10 -3 -10 -14z"/>
<path d="M180 1280 c0 -6 66 -10 170 -10 103 0 170 4 170 10 0 6 -67 9 -170 9
-104 0 -170 -3 -170 -9z"/>
<path d="M995 1280 c-4 -7 48 -10 149 -10 97 0 156 4 156 10 0 6 -56 10 -149
10 -89 0 -152 -4 -156 -10z"/>
<path d="M2120 1279 c0 -5 5 -7 10 -4 6 3 10 8 10 11 0 2 -4 4 -10 4 -5 0 -10
-5 -10 -11z"/>
<path d="M530 1128 l0 -133 -167 3 c-105 2 -170 -1 -177 -8 -7 -7 79 -10 277
-10 158 0 287 4 287 8 0 5 -45 8 -100 8 l-100 -1 0 133 c0 81 -4 132 -10 132
-6 0 -10 -51 -10 -132z"/>
<path d="M530 838 l0 -133 -170 2 c-99 1 -172 -2 -175 -7 -4 -6 86 -9 242 -8
136 1 219 4 184 7 l-63 6 1 133 c1 86 -2 132 -9 132 -6 0 -10 -47 -10 -132z"/>
<path d="M1225 699 c-4 -5 12 -9 36 -9 47 0 48 9 0 15 -17 2 -33 0 -36 -6z"/>
<path d="M533 339 c-2 -23 3 -25 10 -4 4 8 3 16 -1 19 -4 3 -9 -4 -9 -15z"/>
<path d="M2230 1860 c0 -6 45 -10 115 -10 70 0 115 4 115 10 0 6 -45 10 -115
10 -70 0 -115 -4 -115 -10z"/>
<path d="M2220 1570 c0 -6 35 -10 85 -10 50 0 85 4 85 10 0 6 -35 10 -85 10
-50 0 -85 -4 -85 -10z"/>
<path d="M2341 1464 c0 -11 3 -14 6 -6 3 7 2 16 -1 19 -3 4 -6 -2 -5 -13z"/>
<path d="M2301 1454 c0 -11 3 -14 6 -6 3 7 2 16 -1 19 -3 4 -6 -2 -5 -13z"/>
<path d="M2322 1340 c0 -19 2 -27 5 -17 2 9 2 25 0 35 -3 9 -5 1 -5 -18z"/>
<path d="M2265 1279 c-4 -5 10 -9 29 -9 20 0 36 4 36 8 0 12 -58 13 -65 1z"/>
<path d="M1785 1570 c-4 -6 12 -10 40 -10 28 0 44 4 40 10 -3 6 -21 10 -40 10
-19 0 -37 -4 -40 -10z"/>
<path d="M1750 1280 c0 -6 34 -10 81 -10 51 0 78 4 74 10 -3 6 -40 10 -81 10
-43 0 -74 -4 -74 -10z"/>
<path d="M1700 989 c0 -5 57 -9 128 -9 74 0 121 4 114 9 -19 11 -242 11 -242
0z"/>
<path d="M1709 935 c-6 -40 -4 -53 7 -43 3 3 4 23 2 44 l-3 39 -6 -40z"/>
<path d="M2092 860 c-1 -107 2 -190 6 -183 4 6 21 13 37 16 l30 4 -32 2 -33 1
0 140 0 140 33 0 c24 0 28 3 17 10 -8 5 -23 7 -32 4 -13 -4 -18 3 -21 28 -2
18 -4 -55 -5 -162z"/>
<path d="M2233 988 c-2 -5 10 -8 26 -8 17 0 31 4 31 9 0 11 -50 9 -57 -1z"/>
<path d="M2261 904 c0 -11 3 -14 6 -6 3 7 2 16 -1 19 -3 4 -6 -2 -5 -13z"/>
<path d="M2235 700 c-3 -5 -1 -10 4 -10 6 0 11 5 11 10 0 6 -2 10 -4 10 -3 0
-8 -4 -11 -10z"/>
<path d="M2330 699 c0 -5 14 -9 32 -9 36 0 31 12 -7 16 -14 1 -25 -2 -25 -7z"/>
<path d="M2331 644 c0 -11 3 -14 6 -6 3 7 2 16 -1 19 -3 4 -6 -2 -5 -13z"/>
<path d="M2312 530 c0 -19 2 -27 5 -17 2 9 2 25 0 35 -3 9 -5 1 -5 -18z"/>
<path d="M2351 534 c0 -11 3 -14 6 -6 3 7 2 16 -1 19 -3 4 -6 -2 -5 -13z"/>
<path d="M2391 534 c0 -11 3 -14 6 -6 3 7 2 16 -1 19 -3 4 -6 -2 -5 -13z"/>
<path d="M2291 444 c0 -11 3 -14 6 -6 3 7 2 16 -1 19 -3 4 -6 -2 -5 -13z"/>
<path d="M2373 403 l107 -4 2 -102 c1 -71 3 -88 7 -57 3 25 4 73 3 108 l-4 62
-111 -2 -112 -2 108 -3z"/>
<path d="M1701 763 c6 -37 -3 -62 -23 -66 -13 -2 39 -5 115 -6 75 0 137 3 137
7 0 4 -48 8 -107 8 l-108 -1 3 33 c2 18 -1 32 -7 32 -6 0 -10 -3 -10 -7z"/>
<path d="M1700 550 c0 -80 4 -130 10 -130 6 0 10 50 10 130 0 80 -4 130 -10
130 -6 0 -10 -50 -10 -130z"/>
<path d="M1473 403 c15 -2 37 -2 50 0 12 2 0 4 -28 4 -27 0 -38 -2 -22 -4z"/>
<path d="M1651 401 c30 -3 87 -3 125 0 54 5 42 6 -56 6 -83 0 -106 -2 -69 -6z"/>
<path d="M1702 296 c1 -47 5 -83 10 -80 12 8 10 164 -2 164 -6 0 -10 -32 -8
-84z"/>
<path d="M1948 403 c23 -2 59 -2 80 0 20 2 1 4 -43 4 -44 0 -61 -2 -37 -4z"/>
<path d="M2093 230 c0 -30 2 -43 4 -27 2 15 2 39 0 55 -2 15 -4 2 -4 -28z"/>
<path d="M2093 510 c0 -36 2 -50 4 -32 2 17 2 47 0 65 -2 17 -4 3 -4 -33z"/>
<path d="M2123 403 c9 -2 25 -2 35 0 9 3 1 5 -18 5 -19 0 -27 -2 -17 -5z"/>
<path d="M100 2140 c0 -5 5 -10 10 -10 6 0 10 5 10 10 0 6 -4 10 -10 10 -5 0
-10 -4 -10 -10z"/>
<path d="M47 1884 c-4 -4 -7 -16 -7 -26 0 -12 7 -18 25 -18 21 0 23 3 16 22
-9 24 -23 33 -34 22z m20 -26 c-3 -8 -6 -5 -6 6 -1 11 2 17 5 13 3 -3 4 -12 1
-19z"/>
<path d="M107 1883 c-13 -12 -7 -43 8 -43 9 0 15 9 15 25 0 24 -10 32 -23 18z"/>
<path d="M2515 1860 c4 -6 72 -10 171 -10 103 0 164 4 164 10 0 6 -64 10 -171
10 -111 0 -168 -3 -164 -10z"/>
<path d="M2482 1638 c-1 -34 -7 -59 -14 -62 -10 -5 -10 -7 0 -12 10 -5 12 -98
12 -437 -1 -571 -1 -554 8 -540 4 6 7 228 6 492 -1 395 2 481 13 481 7 0 13 5
13 10 0 6 -7 10 -15 10 -10 0 -15 16 -18 58 l-3 57 -2 -57z"/>
<path d="M47 1593 c-4 -3 -7 -15 -7 -25 0 -14 8 -18 35 -18 19 0 38 -1 42 -2
12 -4 14 25 4 42 -6 8 -14 11 -18 6 -4 -5 -2 -11 5 -13 19 -7 14 -23 -7 -23
-10 0 -21 9 -24 20 -5 20 -18 26 -30 13z m20 -25 c-3 -8 -6 -5 -6 6 -1 11 2
17 5 13 3 -3 4 -12 1 -19z"/>
<path d="M2633 1425 c0 -22 2 -30 4 -17 2 12 2 30 0 40 -3 9 -5 -1 -4 -23z"/>
<path d="M2672 1420 c0 -19 2 -27 5 -17 2 9 2 25 0 35 -3 9 -5 1 -5 -18z"/>
<path d="M47 1303 c-16 -15 -6 -41 18 -45 29 -6 28 -7 15 26 -9 26 -21 32 -33
19z m20 -25 c-3 -8 -6 -5 -6 6 -1 11 2 17 5 13 3 -3 4 -12 1 -19z"/>
<path d="M110 1295 c0 -8 0 -18 -1 -22 0 -4 4 -9 9 -11 5 -1 10 9 10 23 0 14
-4 25 -9 25 -5 0 -9 -7 -9 -15z"/>
<path d="M2410 1280 c0 -5 14 -10 31 -10 17 0 28 4 24 10 -3 6 -17 10 -31 10
-13 0 -24 -4 -24 -10z"/>
<path d="M2510 1280 c0 -5 11 -10 25 -10 14 0 25 5 25 10 0 6 -11 10 -25 10
-14 0 -25 -4 -25 -10z"/>
<path d="M2640 1280 c0 -5 7 -10 15 -10 8 0 15 5 15 10 0 6 -7 10 -15 10 -8 0
-15 -4 -15 -10z"/>
<path d="M2684 1279 c-3 -5 33 -9 80 -9 53 0 86 4 86 10 0 13 -158 11 -166 -1z"/>
<path d="M931 1210 c-1 -19 -4 -75 -5 -125 l-1 -89 -48 -2 c-69 -3 -71 -14 -3
-14 l57 0 -3 -137 -3 -138 -92 -1 c-51 0 -96 -3 -99 -7 -4 -4 38 -7 94 -7
l102 0 0 -140 0 -139 -147 -4 -148 -3 147 -2 147 -2 4 -132 3 -133 2 132 2
132 148 4 147 3 -147 2 -148 2 -3 418 c-1 229 -4 401 -6 382z"/>
<path d="M2562 1185 c0 -16 2 -22 5 -12 2 9 2 23 0 30 -3 6 -5 -1 -5 -18z"/>
<path d="M2392 1105 c0 -16 2 -22 5 -12 2 9 2 23 0 30 -3 6 -5 -1 -5 -18z"/>
<path d="M2711 1114 c0 -11 3 -14 6 -6 3 7 2 16 -1 19 -3 4 -6 -2 -5 -13z"/>
<path d="M44 1005 c-11 -27 2 -40 40 -41 24 -1 39 3 43 12 7 19 -5 47 -17 39
-7 -4 -7 -12 0 -25 8 -15 6 -17 -9 -13 -11 3 -21 13 -24 24 -6 23 -25 25 -33
4z"/>
<path d="M954 989 c-3 -5 18 -9 47 -9 29 0 50 2 47 5 -9 10 -88 13 -94 4z"/>
<path d="M2385 990 c-4 -6 12 -10 42 -10 35 0 44 3 33 10 -20 13 -67 13 -75 0z"/>
<path d="M2515 989 c-4 -5 14 -9 39 -9 25 0 46 4 46 9 0 12 -78 12 -85 0z"/>
<path d="M2684 988 c-3 -4 36 -8 86 -8 59 0 89 4 85 10 -7 12 -164 10 -171 -2z"/>
<path d="M1021 924 c0 -11 3 -14 6 -6 3 7 2 16 -1 19 -3 4 -6 -2 -5 -13z"/>
<path d="M791 774 c0 -11 3 -14 6 -6 3 7 2 16 -1 19 -3 4 -6 -2 -5 -13z"/>
<path d="M2622 740 c0 -14 2 -19 5 -12 2 6 2 18 0 25 -3 6 -5 1 -5 -13z"/>
<path d="M42 698 c2 -14 11 -24 24 -26 18 -3 21 1 17 22 -7 34 -46 37 -41 4z
m25 -10 c-3 -8 -6 -5 -6 6 -1 11 2 17 5 13 3 -3 4 -12 1 -19z"/>
<path d="M100 709 c0 -5 6 -7 13 -3 10 6 10 4 0 -7 -17 -18 -16 -29 2 -29 9 0
15 9 15 25 0 16 -6 25 -15 25 -8 0 -15 -5 -15 -11z"/>
<path d="M962 698 c-9 -4 25 -7 76 -7 50 -1 92 2 92 7 0 9 -144 9 -168 0z"/>
<path d="M2514 698 c-3 -4 27 -8 67 -8 40 0 69 3 66 6 -10 10 -127 11 -133 2z"/>
<path d="M2740 699 c-16 -4 1 -7 49 -8 41 -1 72 1 70 3 -9 8 -96 12 -119 5z"/>
<path d="M2643 615 c0 -22 2 -30 4 -17 2 12 2 30 0 40 -3 9 -5 -1 -4 -23z"/>
<path d="M2662 510 c0 -14 2 -19 5 -12 2 6 2 18 0 25 -3 6 -5 1 -5 -13z"/>
<path d="M2772 510 c0 -14 2 -19 5 -12 2 6 2 18 0 25 -3 6 -5 1 -5 -13z"/>
<path d="M42 408 c2 -14 11 -24 24 -26 18 -3 21 1 17 22 -7 34 -46 37 -41 4z
m25 -10 c-3 -8 -6 -5 -6 6 -1 11 2 17 5 13 3 -3 4 -12 1 -19z"/>
<path d="M105 405 c0 -14 3 -25 8 -25 4 0 7 11 7 25 0 14 -3 25 -7 25 -5 0 -8
-11 -8 -25z"/>
<path d="M2588 403 c23 -2 61 -2 85 0 23 2 4 4 -43 4 -47 0 -66 -2 -42 -4z"/>
<path d="M2798 403 c12 -2 32 -2 45 0 12 2 2 4 -23 4 -25 0 -35 -2 -22 -4z"/>
<path d="M1311 188 c0 -31 3 -37 8 -24 7 18 3 66 -5 66 -2 0 -4 -19 -3 -42z"/>
<path d="M536 177 c-5 -15 -6 -31 -2 -34 11 -11 18 5 14 34 l-4 28 -8 -28z"/>
<path d="M1389 136 c-6 -6 -139 -15 -243 -15 -49 -1 -87 -3 -84 -6 3 -3 82 -6
176 -7 146 -1 173 2 187 16 15 15 15 16 -8 16 -13 0 -26 -2 -28 -4z"/>
<path d="M1438 113 c6 -2 18 -2 25 0 6 3 1 5 -13 5 -14 0 -19 -2 -12 -5z"/>
<path d="M557 94 c-11 -11 -8 -26 3 -19 6 3 10 1 10 -4 0 -6 -4 -11 -10 -11
-5 0 -10 -4 -10 -10 0 -5 9 -10 19 -10 15 0 19 6 18 27 -2 26 -17 40 -30 27z"/>
<path d="M915 80 c-8 -27 10 -49 26 -33 13 13 8 45 -8 50 -6 2 -14 -6 -18 -17z"/>
<path d="M1306 93 c-10 -10 -7 -25 4 -18 6 3 10 1 10 -4 0 -6 -4 -11 -10 -11
-5 0 -10 -4 -10 -10 0 -5 8 -10 19 -10 13 0 19 7 19 24 0 24 -20 41 -32 29z"/>
<path d="M2092 91 c-16 -10 -12 -43 6 -49 8 -2 12 7 12 27 0 34 0 34 -18 22z"/>
<path d="M2474 86 c-8 -21 3 -49 16 -41 5 3 10 15 10 25 0 25 -18 36 -26 16z"/>
<path d="M2850 72 c0 -18 5 -32 10 -32 6 0 8 11 4 28 -10 39 -14 40 -14 4z"/>
<path d="M2884 86 c-8 -21 3 -49 16 -41 5 3 10 15 10 25 0 25 -18 36 -26 16z"/>
<path d="M175 77 c-4 -10 -3 -23 3 -29 14 -14 21 3 12 27 -7 19 -8 19 -15 2z"/>
<path d="M1703 74 c-3 -8 -1 -20 6 -27 6 -6 11 -9 12 -6 8 45 -4 69 -18 33z"/>
<path d="M115 60 c8 -13 32 -13 40 0 4 6 -5 10 -20 10 -15 0 -24 -4 -20 -10z"/>
<path d="M505 60 c3 -5 13 -10 21 -10 8 0 14 5 14 10 0 6 -9 10 -21 10 -11 0
-17 -4 -14 -10z"/>
<path d="M1983 63 c15 -2 37 -2 50 0 12 2 0 4 -28 4 -27 0 -38 -2 -22 -4z"/>
</g>
</svg>
