<?xml version="1.0" standalone="no"?>
<!DOCTYPE svg PUBLIC "-//W3C//DTD SVG 20010904//EN"
 "http://www.w3.org/TR/2001/REC-SVG-20010904/DTD/svg10.dtd">
<svg version="1.0" xmlns="http://www.w3.org/2000/svg"
 width="300.000000pt" height="300.000000pt" viewBox="0 0 300.000000 300.000000"
 preserveAspectRatio="xMidYMid meet">
<metadata>
Created by potrace 1.10, written by Peter Selinger 2001-2011
</metadata>
<g transform="translate(0.000000,300.000000) scale(0.100000,-0.100000)"
fill="#ffffe0" stroke="none">
<path d="M1290 2749 c-188 -21 -309 -67 -355 -137 -35 -54 -44 -110 -45 -272
l0 -145 305 3 305 3 0 -40 0 -40 -462 -3 c-457 -3 -464 -3 -520 -26 -79 -32
-160 -108 -198 -185 -62 -126 -92 -385 -64 -560 39 -255 113 -386 244 -432 26
-9 88 -15 175 -16 l135 -1 3 173 c2 172 2 175 33 240 52 109 122 174 234 215
38 14 100 16 415 18 l370 1 55 26 c69 33 126 89 157 156 24 52 24 52 24 408
-1 403 0 401 -81 489 -53 57 -126 93 -226 112 -100 18 -393 26 -504 13z m479
-34 c85 -15 160 -44 193 -74 53 -48 71 -70 90 -106 19 -37 21 -59 23 -380 3
-401 1 -418 -75 -494 -88 -88 -75 -86 -490 -89 -303 -2 -374 -5 -419 -18 -103
-32 -179 -88 -235 -177 -49 -77 -66 -138 -66 -236 0 -47 -3 -116 -7 -153 l-6
-68 -126 3 c-107 2 -132 6 -167 24 -60 32 -102 80 -139 158 -54 115 -70 212
-69 420 0 161 24 297 65 377 42 83 128 153 214 177 26 7 200 11 490 11 306 1
453 4 462 12 16 13 17 90 1 106 -9 9 -89 12 -300 12 -267 0 -288 1 -289 18 -6
97 4 296 15 324 15 34 52 72 98 101 30 18 139 50 146 42 3 -2 13 0 22 5 10 5
67 13 127 16 59 4 109 8 111 9 9 8 257 -8 331 -20z"/>
<path d="M1091 2582 c-98 -49 -90 -206 12 -247 97 -39 200 36 190 137 -10 101
-110 156 -202 110z m113 -17 c40 -19 66 -62 66 -110 0 -29 -8 -45 -34 -71 -29
-29 -41 -34 -81 -34 -38 0 -52 5 -75 28 -57 57 -45 152 23 186 40 20 61 20
101 1z"/>
<path d="M2178 1933 l-3 -188 -34 -62 c-41 -77 -113 -146 -189 -181 l-57 -27
-385 -5 c-439 -6 -436 -5 -525 -95 -89 -88 -90 -93 -93 -470 -2 -219 0 -344 8
-374 39 -156 240 -265 531 -287 143 -11 362 28 483 86 78 37 158 113 174 166
6 21 12 102 13 179 l1 140 -303 2 -304 2 1 38 1 38 499 5 c462 5 502 6 537 24
77 38 149 163 193 333 59 226 15 579 -91 737 -66 98 -140 126 -331 126 l-122
0 -4 -187z m334 138 c69 -26 151 -142 165 -235 3 -17 8 -35 12 -41 49 -64 48
-575 0 -575 -5 0 -9 -11 -9 -24 0 -52 -102 -236 -132 -236 -6 0 -20 -8 -31
-18 -18 -16 -59 -17 -516 -20 -490 -2 -496 -2 -513 -23 -24 -28 -23 -65 2 -87
18 -15 50 -17 288 -19 147 0 275 -2 285 -2 15 -1 17 -14 17 -132 0 -118 -7
-161 -29 -179 -3 -3 -13 -18 -21 -34 -22 -44 -160 -126 -210 -126 -10 0 -20
-4 -22 -10 -4 -11 -156 -37 -258 -44 -83 -5 -288 19 -335 39 -16 7 -50 20 -75
30 -65 24 -137 72 -167 112 -46 59 -51 110 -46 458 4 288 7 324 25 369 25 66
70 112 137 142 54 24 56 24 407 25 255 1 368 4 403 14 75 20 148 64 201 121
100 110 120 175 120 391 l0 122 98 3 c100 3 157 -3 204 -21z"/>
<path d="M1790 679 c-50 -20 -90 -80 -90 -134 0 -85 123 -157 198 -116 91 49
107 144 37 217 -41 43 -91 54 -145 33z m126 -43 c33 -33 39 -52 34 -106 -5
-56 -49 -90 -118 -90 -31 0 -46 7 -71 32 -55 57 -53 109 5 165 50 47 103 46
150 -1z"/>
</g>
</svg>
