<?xml version="1.0" standalone="no"?>
<!DOCTYPE svg PUBLIC "-//W3C//DTD SVG 20010904//EN"
 "http://www.w3.org/TR/2001/REC-SVG-20010904/DTD/svg10.dtd">
<svg version="1.0" xmlns="http://www.w3.org/2000/svg"
 width="300.000000pt" height="300.000000pt" viewBox="0 0 300.000000 300.000000"
 preserveAspectRatio="xMidYMid meet">
<metadata>
Created by potrace 1.10, written by Peter Selinger 2001-2011
</metadata>
<g transform="translate(0.000000,300.000000) scale(0.100000,-0.100000)"
fill="#ffffff" stroke="none">
<path d="M1370 2930 c-186 -18 -338 -62 -515 -150 -386 -191 -672 -563 -760
-988 -50 -238 -34 -505 42 -737 71 -218 181 -395 352 -566 280 -280 618 -421
1011 -421 396 0 751 151 1027 435 266 274 405 616 405 997 0 218 -43 414 -133
609 -132 285 -405 558 -690 690 -227 104 -503 153 -739 131z m308 -20 c439
-55 828 -315 1056 -705 203 -349 242 -811 99 -1195 -253 -680 -959 -1056
-1671 -890 -430 101 -808 427 -978 843 -77 191 -110 389 -101 607 16 359 158
681 412 935 311 311 745 460 1183 405z"/>
<path d="M1036 2280 c-95 -29 -162 -198 -136 -346 33 -193 157 -276 263 -176
139 131 103 461 -56 521 -32 12 -32 12 -71 1z m93 -46 c25 -17 59 -56 53 -62
-2 -2 4 -15 13 -29 13 -19 18 -51 19 -132 2 -121 -9 -166 -54 -214 -16 -17
-30 -35 -30 -39 0 -5 -25 -8 -55 -8 -30 0 -55 5 -55 10 0 6 -6 10 -13 10 -17
0 -65 82 -78 136 -31 120 11 276 88 328 41 28 68 28 112 0z m98 -261 c-2 -16
-4 -5 -4 22 0 28 2 40 4 28 2 -13 2 -35 0 -50z"/>
<path d="M1890 2279 c-156 -64 -190 -392 -53 -521 107 -101 232 -16 264 181
14 83 1 168 -36 242 -24 46 -76 99 -98 99 -7 0 -21 2 -32 5 -11 2 -31 0 -45
-6z m76 -31 c9 -7 24 -20 34 -30 10 -9 21 -13 25 -10 4 4 6 3 5 -3 -4 -20 0
-38 7 -31 4 4 13 -13 20 -36 17 -58 16 -222 -1 -278 -8 -25 -15 -41 -15 -35
-1 5 -13 -9 -28 -32 -17 -27 -36 -43 -55 -47 -30 -6 -88 2 -88 13 0 3 -14 20
-30 38 -17 18 -30 39 -30 47 0 8 -6 16 -12 19 -10 3 -13 39 -13 137 0 98 3
134 13 138 6 2 12 11 12 20 0 20 59 82 78 82 7 0 10 5 7 10 -9 15 53 12 71 -2z"/>
<path d="M1722 1990 c0 -19 2 -27 5 -17 2 9 2 25 0 35 -3 9 -5 1 -5 -18z"/>
<path d="M1682 1970 c0 -14 2 -19 5 -12 2 6 2 18 0 25 -3 6 -5 1 -5 -13z"/>
<path d="M733 1317 c-5 -6 -18 -31 -28 -55 -35 -81 -143 -152 -232 -152 -32 0
-46 -21 -24 -34 13 -9 123 14 148 30 29 18 30 18 37 -8 11 -45 123 -204 191
-272 202 -201 471 -298 765 -274 285 22 551 184 712 433 32 50 61 100 64 113
7 26 8 26 37 8 25 -16 135 -39 148 -30 20 12 8 34 -19 34 -95 0 -203 71 -241
159 -24 56 -38 70 -47 46 -8 -21 23 -91 59 -132 l29 -33 -26 -45 c-45 -76
-141 -188 -207 -241 -176 -139 -337 -201 -551 -211 -143 -7 -239 7 -368 53
-200 72 -380 220 -486 400 l-27 45 26 27 c28 30 67 103 67 126 0 21 -16 28
-27 13z m1614 -209 c-3 -8 -6 -5 -6 6 -1 11 2 17 5 13 3 -3 4 -12 1 -19z
m-1657 -22 c0 -3 -4 -8 -10 -11 -5 -3 -10 -1 -10 4 0 6 5 11 10 11 6 0 10 -2
10 -4z m29 -70 c9 -11 9 -16 -1 -22 -7 -4 -10 -4 -6 1 4 4 3 14 -3 22 -6 7 -9
13 -6 13 2 0 10 -6 16 -14z m1571 -1 c-7 -8 -9 -15 -4 -15 5 0 0 -7 -10 -15
-11 -8 -16 -15 -11 -15 5 0 0 -9 -11 -20 -32 -32 -44 -49 -44 -60 0 -6 -4 -9
-9 -6 -5 4 -23 -13 -40 -36 -18 -24 -34 -42 -36 -40 -3 1 -6 -1 -7 -5 -2 -5
-18 -16 -38 -26 -19 -10 -45 -30 -57 -45 -13 -15 -23 -23 -23 -18 0 6 -6 2
-13 -9 -8 -10 -19 -15 -24 -12 -6 4 -13 0 -17 -8 -3 -8 -15 -15 -26 -15 -11 0
-20 -4 -20 -10 0 -5 -12 -10 -27 -10 -14 0 -23 -3 -19 -7 7 -8 -76 -32 -112
-33 -14 0 -21 -4 -16 -11 4 -8 -3 -9 -26 -4 -21 5 -30 4 -26 -3 9 -15 -62 -21
-212 -19 -94 2 -135 6 -141 15 -4 7 -15 10 -24 6 -10 -3 -17 -1 -17 5 0 6 -10
11 -22 11 -39 1 -123 27 -108 33 8 3 0 6 -17 6 -18 1 -33 6 -33 11 0 6 -6 10
-14 10 -21 0 -67 26 -59 33 6 7 -12 11 -30 8 -4 -1 -10 6 -13 14 -4 8 -10 15
-15 15 -5 0 -17 8 -27 18 -19 17 -30 26 -86 70 -16 12 -26 22 -22 22 3 0 -12
18 -35 40 -24 23 -39 46 -36 54 3 8 -1 13 -10 12 -17 -1 -27 31 -12 40 5 3 8
2 7 -3 -1 -4 14 -26 35 -48 20 -22 37 -43 37 -47 0 -5 7 -8 16 -8 8 0 12 -5 9
-10 -3 -6 0 -10 8 -10 7 0 23 -14 36 -30 12 -17 26 -28 32 -25 5 4 9 3 9 -2 0
-4 14 -14 31 -22 16 -7 28 -16 24 -19 -6 -7 62 -42 82 -42 7 0 13 -4 13 -10 0
-5 9 -10 20 -10 11 0 20 -4 20 -9 0 -5 18 -11 40 -15 27 -4 39 -10 34 -18 -4
-7 -3 -8 4 -4 16 10 63 -4 55 -17 -3 -6 -1 -7 5 -3 14 8 104 -3 98 -13 -2 -3
65 -6 149 -6 84 0 149 3 143 6 -5 3 9 9 32 13 23 3 45 4 51 1 5 -4 9 -1 9 5 0
8 10 10 28 6 21 -5 24 -4 12 5 -12 9 -11 10 8 6 12 -3 20 -1 17 3 -3 5 10 12
30 16 19 3 38 10 41 15 3 5 16 9 30 9 14 0 23 4 20 9 -3 5 7 11 22 14 15 3 37
15 49 26 12 12 29 21 38 21 8 0 14 6 12 13 -1 6 4 11 11 10 6 -2 12 2 12 8 0
5 4 7 10 4 5 -3 15 3 22 15 7 11 19 20 26 20 7 0 10 5 7 10 -3 6 1 10 10 10 9
0 13 5 10 10 -3 6 0 10 7 10 15 0 61 49 98 103 14 20 29 37 34 37 5 0 3 -7 -4
-15z"/>
<path d="M770 1069 c0 -5 5 -7 10 -4 6 3 10 8 10 11 0 2 -4 4 -10 4 -5 0 -10
-5 -10 -11z"/>
</g>
</svg>
